<?xml version="1.0" encoding="utf-8"?>
<!-- Generator: Adobe Illustrator 27.8.1, SVG Export Plug-In . SVG Version: 6.00 Build 0)  -->
<svg version="1.1" id="Layer_1" xmlns="http://www.w3.org/2000/svg" xmlns:xlink="http://www.w3.org/1999/xlink" x="0px" y="0px"
	 viewBox="0 0 272.2 272.2" style="enable-background:new 0 0 272.2 272.2;" xml:space="preserve">
<style type="text/css">
	.st0{fill:#009DDC;}
	.st1{fill:#FFFFFF;}
	.st2{fill-rule:evenodd;clip-rule:evenodd;fill:#FFFFFF;}
</style>
<path class="st0" d="M113.9,63.4c8.5-9,20.5-14.4,33.7-14.4c17.6,0,32.8,9.8,41,24.3c7.1-3.1,14.9-4.9,23.1-4.9
	c31.6,0,57.3,25.9,57.3,57.8S243.3,184,211.6,184c-3.9,0-7.6-0.4-11.3-1.2c-7.1,12.8-20.9,21.5-36.5,21.5c-6.5,0-12.8-1.6-18.3-4.2
	c-7.3,17.1-24.2,29.1-43.9,29.1c-20.6,0-38.1-13-44.8-31.2c-2.9,0.6-6,1-9.1,1c-24.6-0.2-44.4-20.2-44.4-45c0-16.6,8.9-31,22.2-38.8
	c-2.7-6.2-4.2-13.2-4.2-20.5c0-28.4,23-51.4,51.5-51.4C89.6,43.2,104.4,51.1,113.9,63.4z"/>
<path class="st1" d="M41.7,139.6c-0.2,0.4,0.1,0.5,0.1,0.6c0.5,0.4,1,0.6,1.6,0.9c2.7,1.5,5.3,1.9,7.9,1.9c5.5,0,8.9-2.9,8.9-7.5
	v-0.1c0-4.3-3.8-5.9-7.4-7l-0.5-0.2c-2.7-0.9-5.1-1.7-5.1-3.4v-0.1c0-1.6,1.4-2.6,3.5-2.6c2.3,0,5.2,0.8,6.9,1.8
	c0,0,0.5,0.3,0.7-0.2c0.1-0.3,1-2.7,1.1-3c0.1-0.3-0.1-0.5-0.3-0.6c-2-1.3-4.9-2-7.8-2h-0.6c-5,0-8.5,3-8.5,7.3v0.1
	c0,4.6,3.8,6.1,7.4,7l0.6,0.2c2.6,0.8,4.9,1.5,4.9,3.3v0.1c0,1.7-1.5,2.9-3.8,2.9c-0.9,0-3.8,0-7-2c-0.4-0.2-0.6-0.4-0.9-0.6
	c-0.2-0.1-0.6-0.3-0.7,0.3L41.7,139.6L41.7,139.6z M121.6,139.6c-0.2,0.4,0.1,0.5,0.1,0.6c0.5,0.4,1,0.6,1.6,0.9
	c2.7,1.5,5.3,1.9,7.9,1.9c5.5,0,8.9-2.9,8.9-7.5v-0.1c0-4.3-3.8-5.9-7.4-7l-0.5-0.2c-2.7-0.9-5.1-1.7-5.1-3.4v-0.1
	c0-1.6,1.4-2.6,3.5-2.6c2.3,0,5.2,0.8,6.9,1.8c0,0,0.5,0.3,0.7-0.2c0.1-0.3,1-2.7,1.1-3c0.1-0.3-0.1-0.5-0.3-0.6c-2-1.3-4.9-2-7.8-2
	h-0.6c-5,0-8.5,3-8.5,7.3v0.1c0,4.6,3.8,6.1,7.4,7l0.6,0.2c2.6,0.8,4.9,1.5,4.9,3.3v0.1c0,1.7-1.5,2.9-3.8,2.9c-0.9,0-3.8,0-7-2
	c-0.4-0.2-0.6-0.4-0.9-0.6c-0.1-0.1-0.6-0.2-0.7,0.3L121.6,139.6L121.6,139.6z M180.5,125.5c-0.5-1.5-1.2-2.8-2-3.9
	c-1-1.1-2.1-2-3.5-2.6c-1.4-0.7-3-1-4.9-1s-3.5,0.3-4.9,1c-1.4,0.7-2.5,1.6-3.5,2.6c-0.9,1.1-1.7,2.4-2,3.9
	c-0.5,1.5-0.7,3.1-0.7,4.9s0.2,3.4,0.7,4.9c0.5,1.5,1.2,2.8,2,3.9c1,1.1,2.1,2,3.5,2.6c1.4,0.6,3,1,4.9,1s3.5-0.3,4.9-1
	c1.4-0.6,2.5-1.6,3.5-2.6c0.9-1.1,1.7-2.4,2-3.9c0.5-1.5,0.7-3.1,0.7-4.9S181,127.1,180.5,125.5 M175.9,130.4c0,2.6-0.5,4.7-1.5,6.1
	c-1,1.5-2.4,2.1-4.4,2.1c-2,0-3.4-0.7-4.4-2.1c-1-1.5-1.5-3.5-1.5-6.1c0-2.6,0.5-4.7,1.5-6.1c1-1.5,2.3-2.1,4.4-2.1
	c2,0,3.5,0.7,4.4,2.1C175.4,125.7,175.9,127.8,175.9,130.4"/>
<path class="st2" d="M217.9,138.1c-0.2-0.5-0.6-0.3-0.6-0.3c-0.7,0.3-1.4,0.5-2.1,0.6c-0.8,0.1-1.6,0.2-2.5,0.2
	c-2.2,0-3.9-0.7-5.2-2s-2-3.4-2-6.2c0-2.5,0.6-4.5,1.8-6c1.1-1.5,2.8-2.2,5.1-2.2c1.9,0,3.3,0.2,4.8,0.7c0,0,0.4,0.2,0.5-0.3
	c0.4-1.1,0.7-1.9,1.1-3.1c0.1-0.4-0.2-0.5-0.3-0.5c-0.6-0.2-2-0.6-3-0.8c-1-0.2-2.1-0.2-3.4-0.2c-2,0-3.6,0.3-5.1,1
	c-1.5,0.7-2.7,1.6-3.7,2.6c-1,1.1-1.8,2.4-2.2,3.9s-0.8,3.1-0.8,4.9c0,3.8,1,6.8,3,9.1c2,2.2,5.1,3.4,9,3.4c2.3,0,4.7-0.5,6.4-1.2
	c0,0,0.3-0.2,0.2-0.6L217.9,138.1L217.9,138.1z M241.1,124.6c-0.4-1.5-1.4-2.9-2-3.6c-1-1.1-2-1.9-2.9-2.2c-1.3-0.6-2.7-0.9-4.4-0.9
	c-2,0-3.7,0.3-5.1,1c-1.5,0.7-2.6,1.6-3.5,2.7c-1,1.2-1.7,2.4-2,4c-0.5,1.6-0.7,3.1-0.7,4.9s0.2,3.4,0.7,4.9
	c0.5,1.5,1.2,2.8,2.2,3.9c1,1.1,2.3,2,3.9,2.5c1.6,0.6,3.4,0.9,5.6,0.9c4.5,0,6.8-1,7.7-1.6c0.2-0.1,0.3-0.3,0.1-0.8l-1-2.8
	c-0.2-0.4-0.6-0.3-0.6-0.3c-1.1,0.4-2.6,1.2-6.3,1.2c-2.3,0-4.2-0.7-5.3-1.9c-1.2-1.2-1.7-2.8-1.8-5.1h15.4c0,0,0.4,0,0.5-0.4
	C241.6,131.2,242.1,128.1,241.1,124.6L241.1,124.6z M225.8,127.9c0.2-1.5,0.6-2.6,1.3-3.6c1-1.5,2.3-2.2,4.4-2.2s3.3,0.8,4.3,2.2
	c0.7,1,0.9,2.2,1,3.6H225.8z M117.9,124.6c-0.4-1.5-1.4-2.9-2-3.6c-1-1.1-2-1.9-2.9-2.2c-1.3-0.6-2.7-0.9-4.4-0.9
	c-2,0-3.7,0.3-5.1,1c-1.5,0.7-2.6,1.6-3.5,2.7c-1,1.2-1.7,2.4-2,4c-0.5,1.6-0.7,3.1-0.7,4.9s0.2,3.4,0.7,4.9
	c0.5,1.5,1.2,2.8,2.2,3.9c1,1.1,2.3,2,3.9,2.5c1.6,0.6,3.4,0.9,5.6,0.9c4.5,0,6.8-1,7.7-1.6c0.2-0.1,0.3-0.3,0.1-0.8l-1-2.8
	c-0.2-0.4-0.6-0.3-0.6-0.3c-1.1,0.4-2.6,1.2-6.3,1.2c-2.3,0-4.2-0.7-5.3-1.9c-1.2-1.2-1.7-2.8-1.8-5.1h15.4c0,0,0.4,0,0.5-0.4
	C118.3,131.2,118.8,128.1,117.9,124.6z M102.5,127.9c0.2-1.5,0.6-2.6,1.3-3.6c1-1.5,2.3-2.2,4.4-2.2s3.3,0.8,4.3,2.2
	c0.6,1,0.9,2.2,1,3.6C113.5,127.9,102.5,127.9,102.5,127.9z"/>
<path class="st1" d="M75.4,127.2c-0.6,0-1.5-0.1-2.4-0.1c-1.4,0-2.6,0.2-3.8,0.5c-1.2,0.3-2.2,0.8-3.2,1.5s-1.7,1.6-2.2,2.5
	s-0.8,2.2-0.8,3.5c0,1.4,0.2,2.5,0.7,3.5s1.2,1.8,2,2.4c0.9,0.6,2,1.1,3.1,1.4c1.2,0.3,2.5,0.4,4.1,0.4c1.6,0,3.1-0.1,4.7-0.4
	c1.5-0.3,3.3-0.6,3.9-0.8c0.5-0.1,1.1-0.3,1.1-0.3c0.4-0.1,0.4-0.5,0.4-0.5v-14.1c0-3.1-0.8-5.4-2.4-6.8c-1.7-1.4-4-2.1-7-2.1
	c-1.2,0-3,0.2-4.1,0.4c0,0-3.3,0.7-4.8,1.8c0,0-0.3,0.2-0.1,0.6l1.1,2.9c0.1,0.4,0.5,0.3,0.5,0.3s0.1,0,0.3-0.1
	c2.9-1.6,6.7-1.6,6.7-1.6c1.7,0,2.9,0.3,3.8,1s1.3,1.7,1.3,3.7v0.7C76.6,127.3,75.4,127.2,75.4,127.2z M69.3,138
	c-0.6-0.5-0.7-0.6-0.9-0.9c-0.3-0.5-0.5-1.2-0.5-2c0-1.4,0.5-2.3,1.4-3c0,0,1.4-1.2,4.5-1.1c2.2,0,4.2,0.4,4.2,0.4v7
	c0,0-2,0.4-4.2,0.6C70.6,139.1,69.3,138,69.3,138z"/>
<path class="st2" d="M199.5,119.3c0.1-0.4-0.1-0.5-0.2-0.6c-0.3-0.1-1.6-0.4-2.5-0.4c-2-0.1-3,0.2-4,0.7c-1,0.4-2,1.2-2.6,2v-1.9
	c0-0.3-0.2-0.5-0.5-0.5h-3.9c-0.3,0-0.5,0.2-0.5,0.5V142c0,0.3,0.2,0.5,0.5,0.5h4c0.3,0,0.5-0.2,0.5-0.5v-11.6c0-1.6,0.2-3.1,0.5-4
	c0.3-1,0.8-1.8,1.4-2.2c0.6-0.6,1.2-1,1.9-1.2c0.7-0.2,1.5-0.3,2-0.3c0.8,0,1.7,0.2,1.7,0.2c0.3,0,0.5-0.2,0.6-0.4
	C198.7,121.7,199.4,119.7,199.5,119.3z M161.6,108.5c-0.5-0.2-1-0.3-1.6-0.4s-1.3-0.2-2-0.2c-2.8,0-5,0.8-6.5,2.3
	c-1.6,1.6-2.5,3.9-3.1,7l-0.2,1.1h-3.5c0,0-0.4,0-0.5,0.5l-0.6,3.2c0,0.3,0.1,0.5,0.5,0.5h3.4l-3.4,19.2c-0.3,1.6-0.6,2.8-0.9,3.8
	c-0.3,1-0.7,1.7-1.1,2.1s-0.8,0.9-1.4,1.1c-0.5,0.2-1.2,0.3-1.9,0.3c-0.4,0-0.9-0.1-1.3-0.1c-0.4-0.1-0.6-0.2-0.9-0.3
	c0,0-0.4-0.2-0.6,0.3c-0.1,0.3-1.1,2.8-1.2,3.1c-0.1,0.3,0,0.6,0.2,0.6c0.5,0.2,0.8,0.3,1.4,0.4c0.9,0.2,1.6,0.2,2.2,0.2
	c1.5,0,2.7-0.2,3.8-0.6c1.1-0.4,2-1.1,2.8-2c0.9-1,1.5-2,2-3.4c0.5-1.4,1-3.1,1.4-5.2l3.5-19.6h5.1c0,0,0.4,0,0.5-0.5l0.6-3.2
	c0-0.3-0.1-0.5-0.5-0.5H153c0-0.1,0.3-1.9,0.8-3.5c0.2-0.7,0.7-1.3,1.1-1.7c0.4-0.4,0.8-0.7,1.3-0.8c0.5-0.2,1.1-0.2,1.7-0.2
	c0.5,0,0.9,0.1,1.3,0.1c0.5,0.1,0.7,0.2,0.8,0.2c0.5,0.2,0.6,0,0.7-0.2l1.2-3.2C162,108.7,161.7,108.6,161.6,108.5L161.6,108.5z
	 M92.8,141.9c0,0.3-0.2,0.5-0.5,0.5h-4.1c-0.3,0-0.5-0.2-0.5-0.5V109c0-0.3,0.2-0.5,0.5-0.5h4.1c0.3,0,0.5,0.2,0.5,0.5L92.8,141.9
	L92.8,141.9z"/>
</svg>
